<svg xmlns="http://www.w3.org/2000/svg" xmlns:xlink="http://www.w3.org/1999/xlink" width="800" zoomAndPan="magnify" viewBox="0 0 600 599.999999" height="800" preserveAspectRatio="xMidYMid meet" version="1.0"><defs><g/></defs><g fill="#000000" fill-opacity="1"><g transform="translate(46.749673, 582.158657)"><g><path d="M 378.640625 -567.953125 C 381.367188 -571.773438 384.644531 -573.6875 388.46875 -573.6875 L 431.09375 -573.6875 C 436.550781 -573.6875 439.28125 -570.957031 439.28125 -565.5 L 439.28125 -8.203125 C 439.28125 -2.734375 436.550781 0 431.09375 0 L 389.296875 0 C 383.828125 0 381.09375 -2.734375 381.09375 -8.203125 L 381.09375 -454.03125 C 381.09375 -455.675781 380.546875 -456.769531 379.453125 -457.3125 C 378.359375 -457.863281 377.539062 -457.316406 377 -455.671875 L 268 -266.359375 C 265.269531 -262.535156 261.988281 -260.625 258.15625 -260.625 L 249.140625 -260.625 C 245.316406 -260.625 242.039062 -262.535156 239.3125 -266.359375 L 129.484375 -454.859375 C 128.941406 -456.492188 128.125 -457.035156 127.03125 -456.484375 C 125.9375 -455.941406 125.390625 -454.851562 125.390625 -453.21875 L 125.390625 -8.203125 C 125.390625 -2.734375 122.660156 0 117.203125 0 L 75.40625 0 C 69.9375 0 67.203125 -2.734375 67.203125 -8.203125 L 67.203125 -565.5 C 67.203125 -570.957031 69.9375 -573.6875 75.40625 -573.6875 L 118.015625 -573.6875 C 121.835938 -573.6875 125.117188 -571.773438 127.859375 -567.953125 L 251.609375 -357.328125 C 252.148438 -356.785156 252.96875 -356.515625 254.0625 -356.515625 C 255.15625 -356.515625 255.972656 -356.785156 256.515625 -357.328125 Z M 378.640625 -567.953125 "/></g></g></g><path stroke-linecap="butt" transform="matrix(0.750832, 0, 0, 0.75, 138.032747, 242.097578)" fill="none" stroke-linejoin="miter" d="M -0.00199407 16.000104 L 450.513643 16.000104 " stroke="#000000" stroke-width="32" stroke-opacity="1" stroke-miterlimit="4"/></svg>