<svg xmlns="http://www.w3.org/2000/svg" xmlns:xlink="http://www.w3.org/1999/xlink" width="800" zoomAndPan="magnify" viewBox="0 0 600 599.999999" height="800" preserveAspectRatio="xMidYMid meet" version="1.0"><defs><g/></defs><g fill="#000000" fill-opacity="1"><g transform="translate(24.698202, 549.453898)"><g><path d="M 44.671875 0 L 44.671875 -501.296875 L 93.640625 -501.296875 L 93.640625 0 Z M 44.671875 0 "/></g></g><g transform="translate(163.008878, 549.453898)"><g><path d="M 52.78125 -109.359375 C 43.40625 -131.972656 36.675781 -155.300781 32.59375 -179.34375 C 28.507812 -203.382812 26.46875 -227.039062 26.46875 -250.3125 C 26.46875 -273.582031 28.007812 -295.253906 31.09375 -315.328125 C 34.1875 -335.410156 38.820312 -354.9375 45 -373.90625 C 51.175781 -392.875 59.390625 -410.351562 69.640625 -426.34375 C 79.898438 -442.34375 91.539062 -456.40625 104.5625 -468.53125 C 132.789062 -494.125 168.082031 -506.921875 210.4375 -506.921875 C 241.539062 -506.921875 270.769531 -497.546875 298.125 -478.796875 C 330.113281 -456.953125 353.390625 -418.566406 367.953125 -363.640625 L 319.96875 -351.734375 C 319.75 -353.273438 319.472656 -355.425781 319.140625 -358.1875 C 318.804688 -360.945312 317.59375 -366.296875 315.5 -374.234375 C 313.40625 -382.171875 310.921875 -389.722656 308.046875 -396.890625 C 305.179688 -404.066406 300.828125 -412.007812 294.984375 -420.71875 C 289.140625 -429.4375 282.578125 -436.992188 275.296875 -443.390625 C 258.535156 -458.390625 237.359375 -465.890625 211.765625 -465.890625 C 186.179688 -465.890625 164.34375 -459.929688 146.25 -448.015625 C 128.164062 -436.109375 114.160156 -419.785156 104.234375 -399.046875 C 85.035156 -359.335938 75.4375 -311.03125 75.4375 -254.125 C 75.4375 -186.175781 84.257812 -135.4375 101.90625 -101.90625 C 125.070312 -57.789062 161.582031 -35.734375 211.4375 -35.734375 C 273.425781 -35.734375 309.269531 -71.46875 318.96875 -142.9375 C 320.957031 -158.382812 321.953125 -175.921875 321.953125 -195.546875 L 210.4375 -195.546875 L 210.4375 -236.578125 L 369.9375 -236.578125 L 369.9375 0 L 330.21875 0 L 330.21875 -63.53125 C 305.289062 -29.113281 278.929688 -7.9375 251.140625 0 C 238.785156 3.53125 222.460938 5.296875 202.171875 5.296875 C 181.878906 5.296875 161.195312 0.222656 140.125 -9.921875 C 119.0625 -20.066406 101.582031 -33.519531 87.6875 -50.28125 C 73.789062 -67.050781 62.15625 -86.742188 52.78125 -109.359375 Z M 52.78125 -109.359375 "/></g></g></g></svg>