<svg xmlns="http://www.w3.org/2000/svg" xmlns:xlink="http://www.w3.org/1999/xlink" width="800" zoomAndPan="magnify" viewBox="0 0 600 599.999999" height="800" preserveAspectRatio="xMidYMid meet" version="1.0"><defs><g/></defs><g fill="#000000" fill-opacity="1"><g transform="translate(154.369091, 510.307294)"><g><path d="M 266.1875 -105.390625 C 266.1875 -74.878906 257.554688 -49.988281 240.296875 -30.71875 C 223.035156 -11.445312 199.144531 0.195312 168.625 4.21875 C 167.019531 4.21875 166.21875 5.019531 166.21875 6.625 L 166.828125 48.78125 C 166.828125 52.800781 164.816406 54.8125 160.796875 54.8125 L 137.3125 54.8125 C 133.300781 54.8125 131.296875 52.800781 131.296875 48.78125 L 131.890625 6.625 C 131.890625 5.019531 131.085938 4.21875 129.484375 4.21875 C 98.171875 0.195312 73.476562 -11.445312 55.40625 -30.71875 C 37.34375 -49.988281 28.3125 -74.679688 28.3125 -104.796875 L 28.3125 -121.046875 C 28.3125 -125.066406 30.316406 -127.078125 34.328125 -127.078125 L 63.234375 -127.078125 C 67.253906 -127.078125 69.265625 -125.066406 69.265625 -121.046875 L 69.265625 -107.203125 C 69.265625 -84.710938 76.488281 -66.640625 90.9375 -52.984375 C 105.394531 -39.335938 125.066406 -32.515625 149.953125 -32.515625 C 173.242188 -32.515625 191.515625 -38.835938 204.765625 -51.484375 C 218.015625 -64.140625 224.640625 -81.101562 224.640625 -102.375 C 224.640625 -116.03125 221.523438 -127.875 215.296875 -137.90625 C 209.078125 -147.945312 200.046875 -157.285156 188.203125 -165.921875 C 176.359375 -174.554688 158.992188 -185.09375 136.109375 -197.53125 C 111.617188 -210.78125 92.445312 -222.425781 78.59375 -232.46875 C 64.738281 -242.507812 53.492188 -254.753906 44.859375 -269.203125 C 36.234375 -283.660156 31.921875 -301.328125 31.921875 -322.203125 C 31.921875 -351.910156 40.351562 -375.796875 57.21875 -393.859375 C 74.082031 -411.929688 97.367188 -422.578125 127.078125 -425.796875 C 128.679688 -425.796875 129.484375 -426.597656 129.484375 -428.203125 L 128.875 -473.96875 C 128.875 -477.988281 130.882812 -480 134.90625 -480 L 158.390625 -480 C 162.410156 -480 164.421875 -477.988281 164.421875 -473.96875 L 163.8125 -427.59375 C 163.8125 -425.988281 164.613281 -425.1875 166.21875 -425.1875 C 196.332031 -421.175781 219.921875 -409.234375 236.984375 -389.359375 C 254.046875 -369.484375 262.578125 -344.488281 262.578125 -314.375 L 262.578125 -300.515625 C 262.578125 -296.503906 260.570312 -294.5 256.5625 -294.5 L 227.65625 -294.5 C 223.632812 -294.5 221.625 -296.503906 221.625 -300.515625 L 221.625 -313.765625 C 221.625 -336.253906 214.597656 -354.421875 200.546875 -368.265625 C 186.492188 -382.117188 167.222656 -389.046875 142.734375 -389.046875 C 121.054688 -389.046875 103.992188 -383.222656 91.546875 -371.578125 C 79.097656 -359.941406 72.875 -343.484375 72.875 -322.203125 C 72.875 -308.554688 75.785156 -297.113281 81.609375 -287.875 C 87.429688 -278.644531 95.863281 -270.210938 106.90625 -262.578125 C 117.945312 -254.953125 135.109375 -244.710938 158.390625 -231.859375 C 185.296875 -216.609375 205.773438 -203.660156 219.828125 -193.015625 C 233.878906 -182.378906 245.117188 -170.132812 253.546875 -156.28125 C 261.972656 -142.425781 266.1875 -125.460938 266.1875 -105.390625 Z M 266.1875 -105.390625 "/></g></g></g></svg>