<svg width="36" height="29" viewBox="0 0 36 29" fill="none" xmlns="http://www.w3.org/2000/svg">
<path d="M5.05038 28H30.3359C30.5755 28.0001 30.8074 27.9152 30.9903 27.7604C31.1733 27.6056 31.2953 27.3909 31.3349 27.1546L34.3724 8.92956C34.3967 8.78445 34.389 8.63578 34.35 8.49392C34.311 8.35206 34.2415 8.22041 34.1464 8.10814C34.0513 7.99586 33.9329 7.90566 33.7994 7.84381C33.6659 7.78196 33.5205 7.74995 33.3734 7.75H2.01288C1.86575 7.74995 1.72037 7.78196 1.58687 7.84381C1.45337 7.90566 1.33495 7.99586 1.23986 8.10814C1.14478 8.22041 1.0753 8.35206 1.03627 8.49392C0.997243 8.63578 0.989601 8.78445 1.01388 8.92956L4.05138 27.1546C4.09092 27.3909 4.213 27.6056 4.39593 27.7604C4.57885 27.9152 4.81074 28.0001 5.05038 28Z" stroke="black" stroke-width="1.5"/>
<path d="M9.25563 7.75V4.375C9.25563 3.47989 9.61121 2.62145 10.2441 1.98851C10.8771 1.35558 11.7355 1 12.6306 1H22.7556C23.6507 1 24.5092 1.35558 25.1421 1.98851C25.775 2.62145 26.1306 3.47989 26.1306 4.375V7.75" stroke="black" stroke-width="1.5"/>
</svg>
