<svg xmlns="http://www.w3.org/2000/svg" xmlns:xlink="http://www.w3.org/1999/xlink" width="1000" zoomAndPan="magnify" viewBox="0 0 750 82.499998" height="110" preserveAspectRatio="xMidYMid meet" version="1.0"><defs><g/></defs><g fill="#000000" fill-opacity="1"><g transform="translate(6.142853, 77.802149)"><g><path d="M 52.65625 -74 L 66.859375 -74 L 66.859375 0 L 55.28125 0 L 55.28125 -48.4375 L 40.375 0 L 32.21875 0 L 17.3125 -48.4375 L 17.3125 0 L 5.734375 0 L 5.734375 -74 L 19.9375 -74 L 36.34375 -21.046875 Z M 52.65625 -74 "/></g></g></g><g fill="#000000" fill-opacity="1"><g transform="translate(78.433916, 77.802149)"><g><path d="M 43.390625 0 L 37.65625 -21.046875 L 18.125 -21.046875 L 12.390625 0 L 0.40625 0 L 21.84375 -74 L 33.828125 -74 L 55.375 0 Z M 27.890625 -56.6875 L 20.234375 -29.40625 L 35.4375 -29.40625 Z M 27.890625 -56.6875 "/></g></g></g><g fill="#000000" fill-opacity="1"><g transform="translate(134.212818, 77.802149)"><g><path d="M 42.6875 -74 L 54.265625 -74 L 54.265625 -25.265625 C 54.265625 -16.679688 51.914062 -10.101562 47.21875 -5.53125 C 42.519531 -0.96875 36.679688 1.3125 29.703125 1.3125 C 22.722656 1.3125 16.898438 -0.96875 12.234375 -5.53125 C 7.566406 -10.101562 5.234375 -16.679688 5.234375 -25.265625 L 5.234375 -74 L 16.8125 -74 L 16.8125 -25.265625 C 16.8125 -13.992188 21.109375 -8.359375 29.703125 -8.359375 C 33.523438 -8.359375 36.644531 -9.679688 39.0625 -12.328125 C 41.476562 -14.984375 42.6875 -19.296875 42.6875 -25.265625 Z M 42.6875 -74 "/></g></g></g><g fill="#000000" fill-opacity="1"><g transform="translate(193.717029, 77.802149)"><g><path d="M 43.296875 0 L 5.734375 0 L 5.734375 -74 L 17.3125 -74 L 17.3125 -8.359375 L 43.296875 -8.359375 Z M 43.296875 0 "/></g></g></g><g fill="#000000" fill-opacity="1"><g transform="translate(236.407017, 77.802149)"><g/></g></g><g fill="#000000" fill-opacity="1"><g transform="translate(271.646403, 77.802149)"><g><path d="M 1.40625 -74 L 45.71875 -74 L 45.71875 -65.546875 L 29.40625 -65.546875 L 29.40625 0 L 17.71875 0 L 17.71875 -65.546875 L 1.40625 -65.546875 Z M 1.40625 -74 "/></g></g></g><g fill="#000000" fill-opacity="1"><g transform="translate(318.766486, 77.802149)"><g><path d="M 55.171875 -74 L 55.171875 0 L 43.59375 0 L 43.59375 -34.9375 L 17.3125 -34.9375 L 17.3125 0 L 5.734375 0 L 5.734375 -74 L 17.3125 -74 L 17.3125 -45 L 43.59375 -45 L 43.59375 -74 Z M 55.171875 -74 "/></g></g></g><g fill="#000000" fill-opacity="1"><g transform="translate(379.780976, 77.802149)"><g><path d="M 45.109375 0 L 5.734375 0 L 5.734375 -74 L 45.109375 -74 L 45.109375 -65.546875 L 17.3125 -65.546875 L 17.3125 -43.5 L 42.28125 -43.5 L 42.28125 -35.140625 L 17.3125 -35.140625 L 17.3125 -8.359375 L 45.109375 -8.359375 Z M 45.109375 0 "/></g></g></g><g fill="#000000" fill-opacity="1"><g transform="translate(429.216798, 77.802149)"><g/></g></g><g fill="#000000" fill-opacity="1"><g transform="translate(464.456168, 77.802149)"><g><path d="M 55.171875 -74 L 55.171875 0 L 43.59375 0 L 43.59375 -34.9375 L 17.3125 -34.9375 L 17.3125 0 L 5.734375 0 L 5.734375 -74 L 17.3125 -74 L 17.3125 -45 L 43.59375 -45 L 43.59375 -74 Z M 55.171875 -74 "/></g></g></g><g fill="#000000" fill-opacity="1"><g transform="translate(525.470626, 77.802149)"><g><path d="M 20.640625 0 L 20.640625 -28.703125 L 1.90625 -74 L 14.296875 -74 L 26.375 -43.390625 L 38.5625 -74 L 50.953125 -74 L 32.21875 -28.703125 L 32.21875 0 Z M 20.640625 0 "/></g></g></g><g fill="#000000" fill-opacity="1"><g transform="translate(578.430373, 77.802149)"><g><path d="M 45.109375 0 L 5.734375 0 L 5.734375 -74 L 45.109375 -74 L 45.109375 -65.546875 L 17.3125 -65.546875 L 17.3125 -43.5 L 42.28125 -43.5 L 42.28125 -35.140625 L 17.3125 -35.140625 L 17.3125 -8.359375 L 45.109375 -8.359375 Z M 45.109375 0 "/></g></g></g><g fill="#000000" fill-opacity="1"><g transform="translate(627.866195, 77.802149)"><g><path d="M 54.46875 0 L 44.09375 0 L 17.3125 -51.25 L 17.3125 0 L 5.734375 0 L 5.734375 -74 L 17.515625 -74 L 43 -25.46875 L 43 -74 L 54.46875 -74 Z M 54.46875 0 "/></g></g></g><g fill="#000000" fill-opacity="1"><g transform="translate(688.075175, 77.802149)"><g><path d="M 43.390625 0 L 37.65625 -21.046875 L 18.125 -21.046875 L 12.390625 0 L 0.40625 0 L 21.84375 -74 L 33.828125 -74 L 55.375 0 Z M 27.890625 -56.6875 L 20.234375 -29.40625 L 35.4375 -29.40625 Z M 27.890625 -56.6875 "/></g></g></g></svg>