<svg xmlns="http://www.w3.org/2000/svg" xmlns:xlink="http://www.w3.org/1999/xlink" width="1000" zoomAndPan="magnify" viewBox="0 0 750 82.499998" height="110" preserveAspectRatio="xMidYMid meet" version="1.0"><defs><g/></defs><g fill="#000000" fill-opacity="1"><g transform="translate(7.547309, 76.784633)"><g><path d="M 19.3125 -71.578125 L 38 -13.171875 L 56.671875 -71.578125 L 68.28125 -71.578125 L 68.28125 0 L 59.28125 0 L 59.28125 -27.875 L 60.125 -55.796875 L 41.390625 0 L 34.5 0 L 15.875 -55.59375 L 16.71875 -27.875 L 16.71875 0 L 7.71875 0 L 7.71875 -71.578125 Z M 19.3125 -71.578125 "/></g></g></g><g fill="#000000" fill-opacity="1"><g transform="translate(83.594298, 76.784633)"><g><path d="M 41.09375 -18.671875 L 16.90625 -18.671875 L 11.359375 0 L 2.109375 0 L 25.171875 -71.578125 L 32.890625 -71.578125 L 55.984375 0 L 46.75 0 Z M 19.265625 -26.453125 L 38.78125 -26.453125 L 29 -58.984375 Z M 19.265625 -26.453125 "/></g></g></g><g fill="#000000" fill-opacity="1"><g transform="translate(141.6004, 76.784633)"><g><path d="M 50.390625 -71.578125 L 50.390625 -20.6875 C 50.316406 -13.90625 48.347656 -8.597656 44.484375 -4.765625 C 40.617188 -0.929688 35.226562 0.984375 28.3125 0.984375 C 21.238281 0.984375 15.832031 -0.890625 12.09375 -4.640625 C 8.351562 -8.398438 6.453125 -13.75 6.390625 -20.6875 L 6.390625 -71.578125 L 15.34375 -71.578125 L 15.34375 -21.03125 C 15.34375 -16.21875 16.363281 -12.625 18.40625 -10.25 C 20.457031 -7.875 23.757812 -6.6875 28.3125 -6.6875 C 32.90625 -6.6875 36.222656 -7.875 38.265625 -10.25 C 40.316406 -12.625 41.34375 -16.21875 41.34375 -21.03125 L 41.34375 -71.578125 Z M 50.390625 -71.578125 "/></g></g></g><g fill="#000000" fill-opacity="1"><g transform="translate(198.13177, 76.784633)"><g><path d="M 16.765625 -7.71875 L 44.828125 -7.71875 L 44.828125 0 L 7.71875 0 L 7.71875 -71.578125 L 16.765625 -71.578125 Z M 16.765625 -7.71875 "/></g></g></g><g fill="#000000" fill-opacity="1"><g transform="translate(245.962231, 76.784633)"><g/></g></g><g fill="#000000" fill-opacity="1"><g transform="translate(269.017204, 76.784633)"><g><path d="M 49.546875 -63.8125 L 30.71875 -63.8125 L 30.71875 0 L 21.734375 0 L 21.734375 -63.8125 L 2.953125 -63.8125 L 2.953125 -71.578125 L 49.546875 -71.578125 Z M 49.546875 -63.8125 "/></g></g></g><g fill="#000000" fill-opacity="1"><g transform="translate(321.419339, 76.784633)"><g><path d="M 54.5625 0 L 45.515625 0 L 45.515625 -33.078125 L 16.71875 -33.078125 L 16.71875 0 L 7.71875 0 L 7.71875 -71.578125 L 16.71875 -71.578125 L 16.71875 -40.796875 L 45.515625 -40.796875 L 45.515625 -71.578125 L 54.5625 -71.578125 Z M 54.5625 0 "/></g></g></g><g fill="#000000" fill-opacity="1"><g transform="translate(383.849624, 76.784633)"><g><path d="M 42.03125 -33.078125 L 16.71875 -33.078125 L 16.71875 -7.71875 L 46.203125 -7.71875 L 46.203125 0 L 7.71875 0 L 7.71875 -71.578125 L 45.71875 -71.578125 L 45.71875 -63.8125 L 16.71875 -63.8125 L 16.71875 -40.796875 L 42.03125 -40.796875 Z M 42.03125 -33.078125 "/></g></g></g><g fill="#000000" fill-opacity="1"><g transform="translate(433.843002, 76.784633)"><g/></g></g><g fill="#000000" fill-opacity="1"><g transform="translate(456.897975, 76.784633)"><g><path d="M 54.5625 0 L 45.515625 0 L 45.515625 -33.078125 L 16.71875 -33.078125 L 16.71875 0 L 7.71875 0 L 7.71875 -71.578125 L 16.71875 -71.578125 L 16.71875 -40.796875 L 45.515625 -40.796875 L 45.515625 -71.578125 L 54.5625 -71.578125 Z M 54.5625 0 "/></g></g></g><g fill="#000000" fill-opacity="1"><g transform="translate(519.32826, 76.784633)"><g><path d="M 26.34375 -35.640625 L 41 -71.578125 L 51.171875 -71.578125 L 30.828125 -26.6875 L 30.828125 0 L 21.828125 0 L 21.828125 -26.6875 L 1.46875 -71.578125 L 11.703125 -71.578125 Z M 26.34375 -35.640625 "/></g></g></g><g fill="#000000" fill-opacity="1"><g transform="translate(572.123657, 76.784633)"><g><path d="M 42.03125 -33.078125 L 16.71875 -33.078125 L 16.71875 -7.71875 L 46.203125 -7.71875 L 46.203125 0 L 7.71875 0 L 7.71875 -71.578125 L 45.71875 -71.578125 L 45.71875 -63.8125 L 16.71875 -63.8125 L 16.71875 -40.796875 L 42.03125 -40.796875 Z M 42.03125 -33.078125 "/></g></g></g><g fill="#000000" fill-opacity="1"><g transform="translate(622.117035, 76.784633)"><g><path d="M 54.46875 0 L 45.421875 0 L 16.765625 -55.15625 L 16.765625 0 L 7.71875 0 L 7.71875 -71.578125 L 16.765625 -71.578125 L 45.515625 -16.171875 L 45.515625 -71.578125 L 54.46875 -71.578125 Z M 54.46875 0 "/></g></g></g><g fill="#000000" fill-opacity="1"><g transform="translate(684.449038, 76.784633)"><g><path d="M 41.09375 -18.671875 L 16.90625 -18.671875 L 11.359375 0 L 2.109375 0 L 25.171875 -71.578125 L 32.890625 -71.578125 L 55.984375 0 L 46.75 0 Z M 19.265625 -26.453125 L 38.78125 -26.453125 L 29 -58.984375 Z M 19.265625 -26.453125 "/></g></g></g></svg>